# xmcd
#
# Track frame offsets:
# 150
# 16373
# 29277
# 45115
# 64583
# 78318
# 97120
# 109836
# 123297
# 136798
# 149992
# 162331
#
# Disc length: 2376 seconds
#
#
# Revision: 0
# Processed by: cddbd v1.5.2PL0 Copyright (c) Steve Scherf et al.
# Submitted via: FreeRIP 2.941 
#
DISCID=9c09460c
DTITLE=Country Company - After All These Years
DYEAR=1900
DGENRE=Country
TTITLE0=After All These Years
TTITLE1=Mary Lou
TTITLE2=Somewhere Between
TTITLE3=Seven Spanish Angels
TTITLE4=Story Of My Life
TTITLE5=Working Man
TTITLE6=Granma's Feather Bed
TTITLE7=Waltz Across Texas
TTITLE8=I Will Always Love You
TTITLE9=Old Loves Never Die
TTITLE10=Old Rugged Cross
TTITLE11=Gospel Medley
EXTD=
EXTT0=
EXTT1=
EXTT2=
EXTT3=
EXTT4=
EXTT5=
EXTT6=
EXTT7=
EXTT8=
EXTT9=
EXTT10=
EXTT11=
PLAYORDER=
